<!DOCTYPE svg PUBLIC "-//W3C//DTD SVG 1.1//EN" "http://www.w3.org/Graphics/SVG/1.1/DTD/svg11.dtd">
<!-- Uploaded to: SVG Repo, www.svgrepo.com, Transformed by: SVG Repo Mixer Tools -->
<svg width="256px" height="256px" viewBox="-40 -40 480.00 480.00" fill="none" xmlns="http://www.w3.org/2000/svg">
<g id="SVGRepo_bgCarrier" stroke-width="0">
<rect x="-40" y="-40" width="480.00" height="480.00" rx="240" fill="#ffffff" strokewidth="0"/>
</g>
<g id="SVGRepo_tracerCarrier" stroke-linecap="round" stroke-linejoin="round"/>
<g id="SVGRepo_iconCarrier"> <path d="M310.206 125.321C277.275 135.355 103.327 159.94 104.391 129.458C109.096 -5.24625 301.343 30.9996 277.275 163.634C256.03 280.703 104.391 277.974 104.391 159.119" stroke="#000000" stroke-opacity="0.9" stroke-width="16" stroke-linecap="round" stroke-linejoin="round"/> <path d="M169.874 162.582C169.874 158.424 169.874 158.424 169.874 154.266" stroke="#000000" stroke-opacity="0.9" stroke-width="16" stroke-linecap="round" stroke-linejoin="round"/> <path d="M204.138 161.503C204.138 159.5 204.137 155.5 204.178 154.266" stroke="#000000" stroke-opacity="0.9" stroke-width="16" stroke-linecap="round" stroke-linejoin="round"/> <path d="M198.98 215.596C189.323 219.109 182.103 217.514 172.993 215.596" stroke="#000000" stroke-opacity="0.9" stroke-width="16" stroke-linecap="round" stroke-linejoin="round"/> <path d="M77.3594 334.762C108.022 284.703 151.128 266.078 165.607 274.808C173.796 279.746 188.602 303.577 199.5 306.037C211.39 308.72 225.527 270.604 235.131 268.224C263.281 261.242 307.625 311.923 321.641 339.295" stroke="#000000" stroke-opacity="0.9" stroke-width="16" stroke-linecap="round" stroke-linejoin="round"/> </g>
</svg>