<!DOCTYPE svg PUBLIC "-//W3C//DTD SVG 1.1//EN" "http://www.w3.org/Graphics/SVG/1.1/DTD/svg11.dtd">
<!-- Uploaded to: SVG Repo, www.svgrepo.com, Transformed by: SVG Repo Mixer Tools -->
<svg fill="#ffffff" width="256px" height="256px" viewBox="0 0 24.00 24.00" id="chat-2" data-name="Flat Color" xmlns="http://www.w3.org/2000/svg" class="icon flat-color" stroke="#ffffff" stroke-width="0.00024000000000000003">
<g id="SVGRepo_bgCarrier" stroke-width="0"/>
<g id="SVGRepo_tracerCarrier" stroke-linecap="round" stroke-linejoin="round" stroke="#ffffff" stroke-width="1.2">
<path id="primary" d="M20,3H8A2,2,0,0,0,6,5V15a2,2,0,0,0,2,2h2v2a1,1,0,0,0,.51.87A1,1,0,0,0,11,20a1,1,0,0,0,.51-.14L16.28,17H20a2,2,0,0,0,2-2V5A2,2,0,0,0,20,3Z" style="fill: #000000;"/>
<path id="secondary" d="M7,21H4a2,2,0,0,1-2-2V8A1,1,0,0,1,4,8V19H7a1,1,0,0,1,0,2ZM11.5,8.5A1.5,1.5,0,1,0,13,10,1.5,1.5,0,0,0,11.5,8.5Zm5,0A1.5,1.5,0,1,0,18,10,1.5,1.5,0,0,0,16.5,8.5Z" style="fill: #2ca9bc;"/>
</g>
<g id="SVGRepo_iconCarrier">
<path id="primary" d="M20,3H8A2,2,0,0,0,6,5V15a2,2,0,0,0,2,2h2v2a1,1,0,0,0,.51.87A1,1,0,0,0,11,20a1,1,0,0,0,.51-.14L16.28,17H20a2,2,0,0,0,2-2V5A2,2,0,0,0,20,3Z" style="fill: #000000;"/>
<path id="secondary" d="M7,21H4a2,2,0,0,1-2-2V8A1,1,0,0,1,4,8V19H7a1,1,0,0,1,0,2ZM11.5,8.5A1.5,1.5,0,1,0,13,10,1.5,1.5,0,0,0,11.5,8.5Zm5,0A1.5,1.5,0,1,0,18,10,1.5,1.5,0,0,0,16.5,8.5Z" style="fill: #2ca9bc;"/>
</g>
</svg>