<?xml version="1.0" encoding="UTF-8"?>
<svg version="1.1" xmlns="http://www.w3.org/2000/svg" width="512" height="512">
<path d="M0 0 C1.45687377 -0.00571706 2.91374307 -0.01268643 4.37060547 -0.02079773 C8.29226313 -0.0385978 12.21369545 -0.03758571 16.13538122 -0.03185534 C19.42525437 -0.02874402 22.71508543 -0.03487744 26.00495255 -0.04089409 C33.77449684 -0.0548948 41.54393108 -0.05341557 49.31347656 -0.04199219 C57.29336231 -0.03051784 65.27291169 -0.04458524 73.25275314 -0.07138866 C80.13725722 -0.09363577 87.02165642 -0.10016279 93.90619385 -0.09431225 C98.00337993 -0.09096261 102.10035056 -0.0932234 106.19750595 -0.11056328 C110.05388408 -0.12617488 113.9097689 -0.12192201 117.76612854 -0.10325813 C119.16963236 -0.09961101 120.57317392 -0.10256537 121.97664261 -0.11314392 C139.65971197 -0.23610459 154.86639796 4.74448278 167.80517578 16.98608398 C182.26063463 32.28168916 185.57234602 49.39796886 185.48876953 69.65405273 C185.49079597 71.40177532 185.49371213 73.14949707 185.49746704 74.8972168 C185.5018636 78.54150527 185.49554614 82.18557156 185.48144531 85.82983398 C185.46435503 90.4694386 185.47421065 95.10852233 185.4921627 99.74810791 C185.50307318 103.35152007 185.49952114 106.95481148 185.49177933 110.55822754 C185.48979733 112.26761946 185.4921651 113.97702284 185.49921799 115.68640137 C185.56290425 135.45315004 181.33237202 151.81197797 167.09033203 166.40405273 C155.21712101 176.96349214 141.56137651 182.73110577 125.67669678 182.6782074 C124.88032562 182.68344408 124.08395447 182.68868075 123.26345086 182.69407612 C120.62203344 182.70895653 117.98081175 182.70977859 115.33935547 182.71044922 C113.43483152 182.71807824 111.53031063 182.72650701 109.62579346 182.735672 C104.47325642 182.7575379 99.32077868 182.76640406 94.16820049 182.77149844 C90.9480666 182.77514834 87.72794812 182.78139138 84.50782013 182.78849983 C73.27197083 182.81295709 62.03616753 182.82604026 50.80029297 182.82958984 C40.32717523 182.83323255 29.85434918 182.86319 19.38132071 182.90499443 C10.38324851 182.93965263 1.38527332 182.95513743 -7.61286521 182.95583588 C-12.98473119 182.95662956 -18.35629903 182.96541212 -23.72809601 182.99383354 C-28.77453087 183.01994077 -33.82041859 183.02226059 -38.86688995 183.0061779 C-40.71925039 183.00435814 -42.57164181 183.01110146 -44.42393494 183.02699661 C-46.95126495 183.0473647 -49.47666317 183.03696196 -52.00396729 183.01878357 C-53.10517831 183.03858352 -53.10517831 183.03858352 -54.22863603 183.05878347 C-58.01743204 182.9964599 -59.79890471 182.48676814 -62.86493301 180.1971302 C-65.10990675 177.13052954 -65.53405925 175.83966514 -65.53112793 172.1000824 C-65.54233673 171.05036758 -65.55354553 170.00065277 -65.56509399 168.91912842 C-65.54519913 167.20708221 -65.54519913 167.20708221 -65.52490234 165.46044922 C-65.53045135 164.25004471 -65.53600037 163.0396402 -65.54171753 161.79255676 C-65.55149885 158.4775272 -65.53891591 155.16405958 -65.51543236 151.8491962 C-65.49527135 148.36879262 -65.50120619 144.88842188 -65.50354004 141.40797424 C-65.50348647 135.55618669 -65.48374565 129.70472203 -65.45166016 123.85302734 C-65.41488807 117.11442362 -65.40596813 110.37624459 -65.41295767 103.63755363 C-65.41929697 97.13258477 -65.40843771 90.62775969 -65.38899231 84.1228199 C-65.38087626 81.36675 -65.37809803 78.6107542 -65.37968445 75.85467339 C-65.38073893 71.98743442 -65.35637792 68.12056844 -65.32958984 64.25341797 C-65.33252045 63.12622345 -65.33545105 61.99902893 -65.33847046 60.837677 C-65.1538427 43.44081074 -58.89296099 28.98747836 -46.90966797 16.40405273 C-33.20025852 3.59111185 -18.41718258 -0.06608739 0 0 Z M-35.59716797 32.28686523 C-39.01669306 36.64675973 -41.77129168 41.29138943 -43.90966797 46.40405273 C-44.25270966 47.21033112 -44.59575134 48.0166095 -44.94918823 48.84732056 C-46.26738838 53.7287196 -46.17200818 58.33252137 -46.13671875 63.36645508 C-46.1370108 64.45973114 -46.13730286 65.5530072 -46.13760376 66.67941284 C-46.13621353 70.28302015 -46.12066649 73.88641916 -46.10498047 77.48999023 C-46.10124926 79.99248135 -46.09840279 82.49497394 -46.09640503 84.99746704 C-46.08955624 90.90468412 -46.07380287 96.81183468 -46.05370605 102.71901762 C-46.02911775 110.10750565 -46.01840748 117.49600299 -46.00732422 124.88452148 C-45.98588918 138.05773633 -45.95214899 151.23088981 -45.90966797 164.40405273 C-23.95167957 164.45084814 -1.99369944 164.48607848 19.96432877 164.50767708 C30.16064372 164.51797384 40.35692763 164.5320035 50.55322266 164.55493164 C59.4440379 164.57491459 68.33483064 164.58778079 77.22566772 164.59222972 C81.92989498 164.59482881 86.6340579 164.60090427 91.33826447 164.61551285 C95.77379823 164.62917437 100.20924166 164.63325819 104.64479446 164.6302681 C106.26521675 164.63081445 107.88564232 164.63474052 109.5060463 164.64246368 C127.39830239 164.72349694 142.08099261 163.05285697 155.88330078 150.81420898 C162.81852747 143.52241537 166.22953273 132.93678819 166.26733398 123.07788086 C166.27719078 121.96255981 166.27719078 121.96255981 166.2872467 120.82470703 C166.30696853 118.36157117 166.31864409 115.89849647 166.32861328 113.43530273 C166.33268881 112.59124374 166.33676434 111.74718475 166.34096336 110.87754822 C166.36182629 106.40396368 166.37612312 101.93040977 166.38549805 97.45678711 C166.39652108 92.85826185 166.43087232 88.26022601 166.47066975 83.66187286 C166.49695583 80.1082679 166.50520079 76.55477698 166.50877953 73.00108337 C166.51362006 71.30757875 166.52516088 69.61407833 166.54381752 67.92066956 C166.70196733 52.60530486 163.99305321 42.3747092 153.77783203 30.77905273 C141.20689717 19.66985448 128.66416061 18.25249586 112.4230957 18.25878906 C111.17163254 18.25543045 109.92016937 18.25207184 108.63078308 18.24861145 C105.21738527 18.24076985 101.80404832 18.23743568 98.39064574 18.23679566 C96.2524202 18.23608202 94.11420092 18.23394178 91.97597694 18.23129845 C84.50033797 18.22206335 77.02471676 18.21796126 69.54907227 18.21875 C62.60654067 18.21935031 55.66408688 18.2088029 48.72157496 18.19300634 C42.73912195 18.17988459 36.75669423 18.17456804 30.77422696 18.17520541 C27.21089358 18.17545903 23.64762944 18.17268332 20.08431053 18.16202736 C16.10476073 18.15045009 12.12531579 18.15512146 8.14575195 18.16113281 C6.98227234 18.15551331 5.81879272 18.1498938 4.62005615 18.144104 C-10.18775679 18.20070251 -25.25841977 20.75150266 -35.59716797 32.28686523 Z " fill="#000000" transform="translate(195.90966796875,164.595947265625)"/>
<path d="M0 0 C4.40608743 2.16298837 7.1987497 4.39680479 9 9 C9.68426057 14.04325384 9.5739862 17.83076884 7.3125 22.4375 C4.28115306 25.79656012 2.25860352 27.69355631 -2.33203125 28.31640625 C-8.04951809 28.58213652 -11.60250453 27.96847152 -16 24 C-19.38570467 20.16286804 -19.51291172 16.36598538 -19.3515625 11.4375 C-18.67904883 6.77473854 -16.30117669 4.14809708 -12.875 1.125 C-8.55651358 -0.56484251 -4.5732948 -0.65960983 0 0 Z " fill="#000000" transform="translate(261,242)"/>
<path d="M0 0 C0.639375 0.33 1.27875 0.66 1.9375 1 C1.9375 1.66 1.9375 2.32 1.9375 3 C2.5975 3 3.2575 3 3.9375 3 C6.76392121 7.71070202 7.92876828 11.60189774 6.9375 17 C4.40329412 21.6314797 2.00652315 25.31032562 -3.0625 27 C-7.28427069 27.41110876 -10.93646541 27.47543683 -14.875 25.8125 C-18.84458253 22.52341733 -20.76613113 20.22499134 -22 15.125 C-22.42692191 9.73765207 -20.50851409 5.71714173 -17.0625 1.625 C-12.31856786 -2.22944486 -5.56308428 -1.81651732 0 0 Z " fill="#000000" transform="translate(216.0625,243)"/>
<path d="M0 0 C3.86720247 2.00521609 6.94761566 4.11127178 9 8 C10.38242317 14.02341524 10.18456076 17.48009468 7 23 C2.35574824 27.30442846 -0.57631383 28.3038873 -6.75 28.21484375 C-11.21276233 27.78871193 -13.38161273 25.7042744 -16.25 22.4375 C-19.19046778 18.34184845 -19.55210331 14.96892979 -19 10 C-17.5 6.5 -17.5 6.5 -16 4 C-15.34 4 -14.68 4 -14 4 C-14 3.34 -14 2.68 -14 2 C-9.44567394 -0.3506199 -5.01617484 -0.72544328 0 0 Z " fill="#000000" transform="translate(308,242)"/>
</svg>
